<?xml version="1.0" encoding="UTF-8" standalone="no"?>
<svg xmlns="http://www.w3.org/2000/svg" version="1.2" baseProfile="tiny" height="849" width="1752"><g stroke-linejoin="round" stroke-linecap="round" fill="none" stroke="black"><path stroke-width="16" d="M563,320c0,0 0,0 0,0 "/><path stroke-width="17" d="M563,320c1,3 0,3 1,5 "/><path stroke-width="12" d="M564,325c6,10 7,10 14,19 "/><path stroke-width="8" d="M578,344c16,18 16,18 33,34 25,24 26,23 52,45 30,24 30,24 61,46 30,22 30,22 61,41 23,15 23,14 48,28 14,7 14,7 28,12 8,3 9,4 17,4 "/><path stroke-width="9" d="M878,554c5,0 8,0 10,-5 6,-13 6,-15 6,-31 "/><path stroke-width="8" d="M894,518c2,-33 1,-34 -2,-67 -2,-35 -4,-35 -7,-70 -3,-28 -4,-28 -6,-56 -1,-17 -1,-17 0,-33 1,-10 0,-11 4,-19 "/><path stroke-width="9" d="M883,273c4,-6 6,-7 13,-7 30,0 32,-1 62,8 "/><path stroke-width="8" d="M958,274c43,13 43,15 84,34 41,19 41,20 80,42 32,18 32,19 64,38 19,11 19,11 39,24 10,6 10,7 21,14 "/><path stroke-width="9" d="M1246,426c5,3 5,4 11,6 "/><path stroke-width="12" d="M1257,432c2,1 4,2 5,0 "/><path stroke-width="11" d="M1262,432c3,-9 4,-11 3,-22 "/><path stroke-width="8" d="M1265,410c-2,-33 -2,-33 -9,-66 -8,-38 -9,-37 -21,-75 -7,-24 -8,-24 -16,-48 -3,-8 -3,-9 -6,-17 "/><path stroke-width="11" d="M1213,204c0,-1 -1,-1 -1,-1 "/><path stroke-width="13" d="M1212,203c0,1 1,2 2,4 "/></g></svg>